<mxfile host="app.diagrams.net" modified="2021-07-30T23:04:18.516Z" agent="5.0 (Windows)" etag="qfClQMvA4bG_35Ab7bMb" version="14.9.2" type="github">
  <diagram id="en7IpYfBtZfQv5D6KwHp" name="Page-1">
    <mxGraphModel dx="1422" dy="1852" grid="1" gridSize="10" guides="1" tooltips="1" connect="1" arrows="1" fold="1" page="1" pageScale="1" pageWidth="1700" pageHeight="1100" math="0" shadow="0">
      <root>
        <mxCell id="0" />
        <mxCell id="1" parent="0" />
        <mxCell id="DHQOXzC-ihHTkCfRuwks-4" value="" style="group;sketch=1;rounded=1;" vertex="1" connectable="0" parent="1">
          <mxGeometry x="30" y="20" width="150" height="140" as="geometry" />
        </mxCell>
        <mxCell id="DHQOXzC-ihHTkCfRuwks-1" value="" style="pointerEvents=1;shadow=0;dashed=0;html=1;labelPosition=center;verticalLabelPosition=bottom;verticalAlign=top;align=center;outlineConnect=0;shape=mxgraph.veeam2.interface_console;sketch=1;rounded=1;" vertex="1" parent="DHQOXzC-ihHTkCfRuwks-4">
          <mxGeometry width="150" height="140" as="geometry" />
        </mxCell>
        <mxCell id="DHQOXzC-ihHTkCfRuwks-3" value="&lt;div style=&quot;font-size: 10px&quot;&gt;&amp;gt;&amp;gt; 1&lt;/div&gt;&lt;div style=&quot;font-size: 10px&quot;&gt;&lt;br&gt;&lt;/div&gt;&lt;div style=&quot;font-size: 10px&quot;&gt;&amp;gt;&amp;gt; +&lt;/div&gt;&lt;div style=&quot;font-size: 10px&quot;&gt;&lt;br&gt;&lt;/div&gt;&lt;div style=&quot;font-size: 10px&quot;&gt;&amp;gt;&amp;gt; 2&lt;br style=&quot;font-size: 10px&quot;&gt;&lt;/div&gt;" style="text;html=1;strokeColor=none;fillColor=none;align=center;verticalAlign=middle;whiteSpace=wrap;fontFamily=Lucida Console;fontSize=10;sketch=1;rounded=1;" vertex="1" parent="DHQOXzC-ihHTkCfRuwks-4">
          <mxGeometry y="59" width="40" height="50" as="geometry" />
        </mxCell>
        <mxCell id="DHQOXzC-ihHTkCfRuwks-5" value="&lt;div&gt;Plugin Sum&lt;/div&gt;" style="whiteSpace=wrap;html=1;fontFamily=Lucida Console;fontSize=10;sketch=1;rounded=1;" vertex="1" parent="1">
          <mxGeometry x="760" y="30" width="110" height="90" as="geometry" />
        </mxCell>
        <mxCell id="DHQOXzC-ihHTkCfRuwks-6" value="&lt;div&gt;Plugin Dev&lt;br&gt;&lt;/div&gt;" style="whiteSpace=wrap;html=1;fontFamily=Lucida Console;fontSize=10;sketch=1;rounded=1;" vertex="1" parent="1">
          <mxGeometry x="880" y="30" width="110" height="90" as="geometry" />
        </mxCell>
        <mxCell id="DHQOXzC-ihHTkCfRuwks-7" value="&lt;div&gt;Plugin Mult&lt;br&gt;&lt;/div&gt;" style="whiteSpace=wrap;html=1;fontFamily=Lucida Console;fontSize=10;sketch=1;rounded=1;" vertex="1" parent="1">
          <mxGeometry x="1000" y="30" width="110" height="90" as="geometry" />
        </mxCell>
        <mxCell id="DHQOXzC-ihHTkCfRuwks-11" value="&lt;div&gt;&lt;font color=&quot;#001933&quot;&gt;Send Data To Plugin Sum For &lt;br&gt;&lt;/font&gt;&lt;/div&gt;&lt;div&gt;&lt;font color=&quot;#001933&quot;&gt;Calculate Between Numbers&lt;/font&gt;&lt;/div&gt;" style="edgeStyle=orthogonalEdgeStyle;orthogonalLoop=1;jettySize=auto;html=1;entryX=0;entryY=0.5;entryDx=0;entryDy=0;fontFamily=Lucida Console;fontSize=10;sketch=1;curved=1;" edge="1" parent="1" source="DHQOXzC-ihHTkCfRuwks-9" target="DHQOXzC-ihHTkCfRuwks-5">
          <mxGeometry relative="1" as="geometry" />
        </mxCell>
        <mxCell id="DHQOXzC-ihHTkCfRuwks-12" value="&lt;font color=&quot;#000033&quot;&gt;Get Numbers And Operator&lt;/font&gt;" style="edgeStyle=orthogonalEdgeStyle;orthogonalLoop=1;jettySize=auto;html=1;fontFamily=Lucida Console;fontSize=10;sketch=1;curved=1;" edge="1" parent="1" source="DHQOXzC-ihHTkCfRuwks-9" target="DHQOXzC-ihHTkCfRuwks-1">
          <mxGeometry relative="1" as="geometry" />
        </mxCell>
        <mxCell id="DHQOXzC-ihHTkCfRuwks-9" value="Observer" style="ellipse;whiteSpace=wrap;html=1;aspect=fixed;fontFamily=Lucida Console;fontSize=10;sketch=1;rounded=1;" vertex="1" parent="1">
          <mxGeometry x="370" y="150" width="80" height="80" as="geometry" />
        </mxCell>
        <mxCell id="DHQOXzC-ihHTkCfRuwks-14" style="edgeStyle=orthogonalEdgeStyle;orthogonalLoop=1;jettySize=auto;html=1;fontFamily=Lucida Console;fontSize=10;sketch=1;curved=1;" edge="1" parent="1" source="DHQOXzC-ihHTkCfRuwks-13" target="DHQOXzC-ihHTkCfRuwks-9">
          <mxGeometry relative="1" as="geometry" />
        </mxCell>
        <mxCell id="DHQOXzC-ihHTkCfRuwks-13" value="&lt;div&gt;Get Operator &lt;br&gt;&lt;/div&gt;&lt;div&gt;&amp;amp;&lt;/div&gt;&lt;div&gt;Add&lt;/div&gt;&lt;div&gt;Sum Plugin &lt;br&gt;&lt;/div&gt;&lt;div&gt;to&lt;/div&gt;&lt;div&gt;Project&lt;br&gt;&lt;/div&gt;" style="rhombus;whiteSpace=wrap;html=1;fontFamily=Lucida Console;fontSize=10;sketch=1;rounded=1;" vertex="1" parent="1">
          <mxGeometry x="320" y="-80" width="180" height="180" as="geometry" />
        </mxCell>
      </root>
    </mxGraphModel>
  </diagram>
</mxfile>
